<?xml version="1.0" encoding="UTF-8" standalone="no" ?>
<!DOCTYPE svg PUBLIC "-//W3C//DTD SVG 1.1//EN" "http://www.w3.org/Graphics/SVG/1.1/DTD/svg11.dtd">
<svg xmlns="http://www.w3.org/2000/svg" xmlns:xlink="http://www.w3.org/1999/xlink" version="1.1" width="1080" height="1080" viewBox="0 0 1080 1080" xml:space="preserve">
<desc>Created with Fabric.js 5.2.4</desc>
<defs>
</defs>
<rect x="0" y="0" width="100%" height="100%" fill="transparent"></rect>
<g transform="matrix(1 0 0 1 540 540)" id="2ff60eaa-fc46-4076-989b-17f817770fb4"  >
<rect style="stroke: none; stroke-width: 1; stroke-dasharray: none; stroke-linecap: butt; stroke-dashoffset: 0; stroke-linejoin: miter; stroke-miterlimit: 4; fill: rgb(255,255,255); fill-rule: nonzero; opacity: 1; visibility: hidden;" vector-effect="non-scaling-stroke"  x="-540" y="-540" rx="0" ry="0" width="1080" height="1080" />
</g>
<g transform="matrix(1 0 0 1 540 540)" id="63f271b0-7a9e-4105-8a92-3c7fd355a042"  >
</g>
<g transform="matrix(2.43 0 0 2.35 518.37 604.12)"  >
<g style=""   >
		<g transform="matrix(2.16 0 0 2.16 0.71 71.43)" id="SvgjsG5661"  >
<path style="stroke: none; stroke-width: 1; stroke-dasharray: none; stroke-linecap: butt; stroke-dashoffset: 0; stroke-linejoin: miter; stroke-miterlimit: 4; fill: rgb(27,19,36); fill-rule: nonzero; opacity: 1;" vector-effect="non-scaling-stroke"  transform=" translate(-63.13, -12.65)" d="M 0.36 5.24 L 9.2 5.24 L 9.2 8.34 L 6.42 8.34 L 6.42 19.82 L 6.6 20 L 3.0199999999999996 20 L 3.1999999999999997 19.82 L 3.1999999999999997 8.34 L 0.3599999999999999 8.34 L 0.3599999999999999 5.24 z M 17.26 19.82 L 16.680000000000003 17.58 L 13.700000000000003 17.58 L 13.140000000000002 19.82 L 13.320000000000002 20 L 9.600000000000001 20 L 9.820000000000002 19.82 L 13.460000000000003 5.4399999999999995 L 13.280000000000003 5.26 L 17.080000000000002 5.26 L 16.880000000000003 5.4399999999999995 L 20.580000000000002 19.82 L 20.76 20 L 17.060000000000002 20 z M 15.200000000000001 9.88 L 15.160000000000002 9.88 L 14.380000000000003 14.56 L 15.980000000000002 14.56 z M 28.840000000000003 19.82 L 29.020000000000003 20 L 21.720000000000002 20 L 21.900000000000002 19.84 L 21.900000000000002 5.24 L 25.12 5.24 L 25.12 16.78 L 28.84 16.78 L 28.84 19.82 z M 30.520000000000003 5.24 L 37.14 5.24 L 37.3 5.0600000000000005 L 37.3 8.64 L 37.12 8.46 L 33.739999999999995 8.46 L 33.739999999999995 11 L 36.839999999999996 11 L 37.019999999999996 10.82 L 37.019999999999996 14.42 L 36.839999999999996 14.22 L 33.739999999999995 14.22 L 33.739999999999995 16.78 L 37.419999999999995 16.78 L 37.599999999999994 16.6 L 37.599999999999994 20.18 L 37.419999999999995 20 L 30.339999999999996 20 L 30.519999999999996 19.82 L 30.519999999999996 5.24 z M 43.260000000000005 11 C 45.120000000000005 11.64 47.300000000000004 12.84 47.2 15.54 C 47.120000000000005 17.599999999999998 46.160000000000004 18.7 45.400000000000006 19.24 C 43.46000000000001 20.619999999999997 40.64000000000001 20.099999999999998 38.800000000000004 19.02 L 39.78 15.879999999999999 C 41.08 16.439999999999998 43.56 17.52 43.96 15.68 C 44.36 13.92 38.68 14.1 38.84 9.44 C 38.980000000000004 5.42 43.080000000000005 4.3 46.580000000000005 5.84 L 45.540000000000006 8.719999999999999 C 44.620000000000005 8.319999999999999 42.28000000000001 7.8599999999999985 42.080000000000005 9.499999999999998 C 41.980000000000004 10.219999999999999 42.60000000000001 10.699999999999998 43.260000000000005 10.999999999999998 z M 57.32000000000001 5.02 C 60.440000000000005 5.02 61.84 6.959999999999999 61.84 8.98 L 61.84 16.2 C 61.84 18.22 60.38 20.18 57.32000000000001 20.18 C 54.32000000000001 20.18 52.720000000000006 18.22 52.720000000000006 16.2 L 52.720000000000006 8.98 C 52.720000000000006 6.960000000000001 54.10000000000001 5.0200000000000005 57.32000000000001 5.0200000000000005 z M 58.620000000000005 16.2 L 58.620000000000005 8.98 C 58.620000000000005 7.78 55.940000000000005 7.82 55.940000000000005 8.98 L 55.940000000000005 16.2 C 55.940000000000005 17.54 58.620000000000005 17.52 58.620000000000005 16.2 z M 70.52000000000001 8.46 L 67.06000000000002 8.46 L 67.06000000000002 11.040000000000001 L 70.12000000000002 11.040000000000001 L 70.30000000000003 10.860000000000001 L 70.30000000000003 14.400000000000002 L 70.12000000000002 14.220000000000002 L 67.06000000000002 14.220000000000002 L 67.06000000000002 19.82 L 67.24000000000002 20 L 63.660000000000025 20 L 63.840000000000025 19.82 L 63.840000000000025 5.24 L 70.52000000000002 5.24 L 70.70000000000003 5.0600000000000005 L 70.70000000000003 8.64 z M 81.05999999999999 5.02 C 84.17999999999999 5.02 85.57999999999998 6.959999999999999 85.57999999999998 8.98 L 85.57999999999998 16.2 C 85.57999999999998 18.22 84.11999999999999 20.18 81.05999999999999 20.18 C 78.05999999999999 20.18 76.46 18.22 76.46 16.2 L 76.46 8.98 C 76.46 6.960000000000001 77.83999999999999 5.0200000000000005 81.05999999999999 5.0200000000000005 z M 82.36 16.2 L 82.36 8.98 C 82.36 7.78 79.67999999999999 7.82 79.67999999999999 8.98 L 79.67999999999999 16.2 C 79.67999999999999 17.54 82.36 17.52 82.36 16.2 z M 90.8 9.1 L 90.8 16.16 C 90.8 16.5 91.08 16.78 91.44 16.78 L 94.86 16.78 L 94.86 20 L 91.44 20 C 89.3 20 87.58 18.28 87.58 16.16 L 87.58 9.100000000000001 C 87.58 6.960000000000001 89.3 5.240000000000002 91.44 5.240000000000002 L 94.7 5.240000000000002 L 94.7 8.460000000000003 L 91.44 8.460000000000003 C 91.08 8.460000000000003 90.8 8.740000000000002 90.8 9.100000000000003 z M 96.58 5.24 L 103.2 5.24 L 103.36 5.0600000000000005 L 103.36 8.64 L 103.17999999999999 8.46 L 99.8 8.46 L 99.8 11 L 102.89999999999999 11 L 103.08 10.82 L 103.08 14.42 L 102.89999999999999 14.22 L 99.8 14.22 L 99.8 16.78 L 103.48 16.78 L 103.66000000000001 16.6 L 103.66000000000001 20.18 L 103.48 20 L 96.4 20 L 96.58000000000001 19.82 L 96.58000000000001 5.24 z M 112.06 19.82 L 111.48 17.58 L 108.5 17.58 L 107.94 19.82 L 108.12 20 L 104.4 20 L 104.62 19.82 L 108.26 5.4399999999999995 L 108.08 5.26 L 111.88 5.26 L 111.67999999999999 5.4399999999999995 L 115.38 19.82 L 115.56 20 L 111.86 20 z M 110 9.88 L 109.96 9.88 L 109.17999999999999 14.56 L 110.77999999999999 14.56 z M 125.52000000000001 20.28 L 119.76 13.66 L 119.76 19.8 L 119.94000000000001 19.98 L 116.52000000000001 19.98 L 116.70000000000002 19.8 L 116.70000000000002 5.100000000000001 L 116.90000000000002 5.100000000000001 L 122.66000000000003 12.540000000000003 L 122.66000000000003 5.420000000000003 L 122.46000000000002 5.240000000000003 L 125.90000000000002 5.240000000000003 L 125.70000000000002 5.420000000000003 L 125.70000000000002 20.28 L 125.52000000000001 20.28 z" stroke-linecap="round" />
</g>
		<g transform="matrix(4.39 0 0 4.39 -66 -0.03)" id="SvgjsG5662"  >
<path style="stroke: none; stroke-width: 1; stroke-dasharray: none; stroke-linecap: butt; stroke-dashoffset: 0; stroke-linejoin: miter; stroke-miterlimit: 4; fill: rgb(27,19,36); fill-rule: nonzero; opacity: 1;" vector-effect="non-scaling-stroke"  transform=" translate(-29.8, -12.49)" d="M 7.42 5.16 Q 7.66 5.36 7.66 5.7 L 7.66 7.2 Q 7.66 7.46 7.51 7.65 Q 7.359999999999999 7.840000000000001 7.1 7.9 Q 5.819999999999999 8.16 4.92 9.120000000000001 Q 3.7 10.4 3.7 12.450000000000001 Q 3.7 14.500000000000002 4.92 15.8 Q 5.82 16.740000000000002 7.1 17 Q 7.359999999999999 17.06 7.51 17.25 Q 7.66 17.44 7.66 17.7 L 7.66 19.2 Q 7.66 19.52 7.42 19.74 Q 7.2 19.9 6.96 19.9 L 6.84 19.9 Q 4.52 19.52 2.86 17.799999999999997 Q 0.7799999999999998 15.659999999999997 0.7799999999999998 12.469999999999997 Q 0.7799999999999998 9.279999999999998 2.86 7.099999999999997 Q 4.48 5.419999999999997 6.84 5.019999999999997 Q 7.16 4.959999999999997 7.42 5.159999999999997 z M 13.7 7.1 Q 15.78 9.28 15.78 12.469999999999999 Q 15.78 15.659999999999998 13.7 17.799999999999997 Q 12.04 19.519999999999996 9.719999999999999 19.9 L 9.6 19.9 Q 9.36 19.9 9.139999999999999 19.74 Q 8.899999999999999 19.52 8.899999999999999 19.2 L 8.899999999999999 17.7 Q 8.899999999999999 17.439999999999998 9.049999999999999 17.25 Q 9.2 17.060000000000002 9.459999999999999 17 Q 10.739999999999998 16.74 11.639999999999999 15.8 Q 12.86 14.5 12.86 12.450000000000001 Q 12.86 10.400000000000002 11.639999999999999 9.120000000000001 Q 10.739999999999998 8.16 9.459999999999999 7.900000000000001 Q 9.2 7.840000000000002 9.049999999999999 7.650000000000001 Q 8.899999999999999 7.460000000000001 8.899999999999999 7.200000000000001 L 8.899999999999999 5.700000000000001 Q 8.899999999999999 5.360000000000001 9.149999999999999 5.160000000000001 Q 9.399999999999999 4.960000000000001 9.719999999999999 5.020000000000001 Q 12.079999999999998 5.420000000000002 13.7 7.100000000000001 z M 25.56 7.859999999999999 Q 25.299999999999997 7.819999999999999 25.13 7.619999999999999 Q 24.96 7.419999999999999 24.959999999999997 7.159999999999999 L 24.959999999999997 5.699999999999999 Q 24.959999999999997 5.359999999999999 25.199999999999996 5.159999999999999 Q 25.439999999999994 4.959999999999999 25.759999999999994 4.999999999999999 Q 27.479999999999993 5.279999999999999 28.819999999999993 6.219999999999999 Q 30.55999999999999 7.479999999999999 31.279999999999994 9.559999999999999 Q 31.399999999999995 9.899999999999999 31.199999999999996 10.2 Q 30.999999999999996 10.5 30.619999999999997 10.5 L 29.019999999999996 10.5 Q 28.799999999999997 10.5 28.619999999999997 10.39 Q 28.439999999999998 10.280000000000001 28.359999999999996 10.08 Q 27.919999999999995 9.04 27.019999999999996 8.42 Q 26.319999999999997 7.9799999999999995 25.559999999999995 7.859999999999999 z M 30.619999999999997 14.5 Q 30.999999999999996 14.5 31.199999999999996 14.8 Q 31.399999999999995 15.100000000000001 31.279999999999994 15.440000000000001 Q 30.559999999999995 17.520000000000003 28.819999999999993 18.78 Q 27.479999999999993 19.720000000000002 25.759999999999994 20 L 25.659999999999993 20 Q 25.379999999999992 20 25.199999999999992 19.82 Q 24.959999999999994 19.64 24.959999999999994 19.3 L 24.959999999999994 17.84 Q 24.959999999999994 17.58 25.119999999999994 17.38 Q 25.279999999999994 17.18 25.539999999999996 17.14 Q 26.379999999999995 17.02 27.019999999999996 16.580000000000002 Q 27.919999999999995 15.960000000000003 28.359999999999996 14.920000000000002 Q 28.439999999999994 14.720000000000002 28.619999999999997 14.610000000000001 Q 28.8 14.5 29.019999999999996 14.500000000000002 L 30.619999999999997 14.500000000000002 z M 23.46 5.24 Q 23.720000000000002 5.44 23.720000000000002 5.78 L 23.720000000000002 7.34 Q 23.720000000000002 7.56 23.570000000000004 7.75 Q 23.420000000000005 7.94 23.200000000000003 8.02 Q 22.92 8.08 22.76 8.16 Q 21.96 8.52 21.400000000000002 9.14 Q 20.26 10.42 20.26 12.49 Q 20.26 14.56 21.400000000000002 15.86 Q 22.1 16.66 23.200000000000003 16.98 Q 23.42 17.04 23.570000000000004 17.23 Q 23.720000000000006 17.42 23.720000000000002 17.64 L 23.720000000000002 19.22 Q 23.720000000000002 19.56 23.46 19.759999999999998 Q 23.28 19.919999999999998 23 19.919999999999998 L 22.86 19.919999999999998 Q 20.72 19.459999999999997 19.24 17.839999999999996 Q 17.34 15.699999999999996 17.34 12.499999999999996 Q 17.34 9.299999999999997 19.24 7.159999999999997 Q 20.72 5.519999999999997 22.86 5.099999999999996 Q 23.18 5.019999999999996 23.46 5.239999999999996 z M 44.16 16.96 Q 44.459999999999994 16.96 44.66 17.17 Q 44.86 17.380000000000003 44.86 17.680000000000003 L 44.86 19.140000000000004 Q 44.86 19.420000000000005 44.66 19.630000000000003 Q 44.459999999999994 19.84 44.16 19.840000000000003 L 34.279999999999994 19.840000000000003 Q 33.99999999999999 19.840000000000003 33.78999999999999 19.630000000000003 Q 33.57999999999999 19.42 33.57999999999999 19.140000000000004 L 33.57999999999999 17.680000000000003 Q 33.57999999999999 17.380000000000003 33.78999999999999 17.17 Q 33.99999999999999 16.96 34.279999999999994 16.96 L 44.16 16.96 z M 34.28 13.86 Q 34 13.86 33.79 13.649999999999999 Q 33.58 13.439999999999998 33.58 13.159999999999998 L 33.58 11.659999999999998 Q 33.58 11.379999999999999 33.79 11.169999999999998 Q 34 10.959999999999997 34.28 10.959999999999997 L 43.260000000000005 10.959999999999997 Q 43.56 10.959999999999997 43.77 11.169999999999998 Q 43.980000000000004 11.379999999999999 43.980000000000004 11.659999999999998 L 43.980000000000004 13.159999999999998 Q 43.980000000000004 13.439999999999998 43.77 13.649999999999999 Q 43.56 13.86 43.260000000000005 13.86 L 34.28 13.86 z M 44.16 5 Q 44.459999999999994 5 44.66 5.21 Q 44.86 5.42 44.86 5.7 L 44.86 7.16 Q 44.86 7.46 44.66 7.67 Q 44.459999999999994 7.88 44.16 7.88 L 34.279999999999994 7.88 Q 33.99999999999999 7.88 33.78999999999999 7.67 Q 33.57999999999999 7.46 33.57999999999999 7.16 L 33.57999999999999 5.7 Q 33.57999999999999 5.42 33.78999999999999 5.21 Q 33.99999999999999 5 34.279999999999994 5 L 44.16 5 z M 57.06 12.42 Q 57.92 12.96 58.370000000000005 13.74 Q 58.82000000000001 14.52 58.82000000000001 15.48 Q 58.82000000000001 17.740000000000002 57.10000000000001 18.94 Q 55.94000000000001 19.78 53.96000000000001 20 L 53.88000000000001 20 Q 53.60000000000001 20 53.42000000000001 19.82 Q 53.18000000000001 19.6 53.18000000000001 19.3 L 53.18000000000001 17.86 Q 53.18000000000001 17.599999999999998 53.36000000000001 17.4 Q 53.540000000000006 17.2 53.800000000000004 17.16 Q 54.74 17.06 55.260000000000005 16.72 Q 55.660000000000004 16.48 55.800000000000004 16.099999999999998 Q 55.88 15.879999999999997 55.88 15.539999999999997 Q 55.88 15.319999999999997 55.800000000000004 15.159999999999997 Q 55.720000000000006 14.999999999999996 55.52 14.859999999999996 Q 54.940000000000005 14.459999999999996 54.02 14.179999999999996 L 53.7 14.079999999999997 Q 52.7 13.799999999999997 51.86 13.619999999999996 Q 51.68 13.579999999999997 51.28 13.479999999999995 L 51.06 13.419999999999995 Q 50.34 13.239999999999995 49.54 12.919999999999995 Q 48.36 12.419999999999995 47.6 11.659999999999995 Q 46.72 10.779999999999994 46.72 9.339999999999995 Q 46.72 7.359999999999994 48.24 6.119999999999994 Q 49.28 5.239999999999994 51.160000000000004 4.999999999999994 Q 51.480000000000004 4.959999999999994 51.71 5.1799999999999935 Q 51.94 5.399999999999993 51.94 5.699999999999994 L 51.94 7.1399999999999935 Q 51.94 7.399999999999993 51.78 7.599999999999993 Q 51.620000000000005 7.799999999999994 51.370000000000005 7.829999999999994 Q 51.120000000000005 7.859999999999994 50.86000000000001 7.939999999999994 Q 50.28000000000001 8.159999999999995 50.040000000000006 8.369999999999994 Q 49.800000000000004 8.579999999999993 49.7 8.799999999999994 Q 49.6 9.139999999999993 49.6 9.439999999999994 Q 49.6 9.599999999999994 49.78 9.779999999999994 Q 50.06 10.059999999999993 50.6 10.279999999999994 Q 50.84 10.379999999999994 51.440000000000005 10.579999999999995 L 53.940000000000005 11.199999999999994 L 54.06 11.239999999999993 Q 55 11.499999999999993 55.42 11.639999999999993 Q 56.36 11.959999999999994 57.06 12.419999999999993 z M 53.720000000000006 7.9 Q 53.480000000000004 7.840000000000001 53.330000000000005 7.65 Q 53.18000000000001 7.46 53.18000000000001 7.2 L 53.18000000000001 5.74 Q 53.18000000000001 5.42 53.440000000000005 5.2 Q 53.540000000000006 5.1000000000000005 53.7 5.07 Q 53.86 5.04 54 5.0600000000000005 Q 55.76 5.340000000000001 56.86 6.260000000000001 Q 58.36 7.500000000000001 58.46 9.420000000000002 Q 58.480000000000004 9.700000000000001 58.27 9.930000000000001 Q 58.06 10.160000000000002 57.760000000000005 10.160000000000002 L 56.2 10.160000000000002 Q 55.940000000000005 10.160000000000002 55.74 9.980000000000002 Q 55.54 9.800000000000002 55.52 9.540000000000003 Q 55.440000000000005 9.020000000000003 55.18 8.680000000000003 Q 54.76 8.180000000000003 53.88 7.9200000000000035 Q 53.82 7.9200000000000035 53.800000000000004 7.900000000000004 L 53.720000000000006 7.900000000000004 z M 51.38 17.08 Q 51.620000000000005 17.119999999999997 51.78 17.319999999999997 Q 51.94 17.519999999999996 51.94 17.759999999999998 L 51.94 19.24 Q 51.94 19.56 51.699999999999996 19.779999999999998 Q 51.49999999999999 19.939999999999998 51.239999999999995 19.939999999999998 L 51.13999999999999 19.939999999999998 Q 49.279999999999994 19.659999999999997 48.07999999999999 18.72 Q 46.51999999999999 17.48 46.31999999999999 15.259999999999998 Q 46.279999999999994 14.939999999999998 46.49999999999999 14.709999999999997 Q 46.71999999999999 14.479999999999997 47.019999999999996 14.479999999999997 L 48.599999999999994 14.479999999999997 Q 48.879999999999995 14.479999999999997 49.07999999999999 14.669999999999996 Q 49.27999999999999 14.859999999999996 49.29999999999999 15.139999999999997 Q 49.35999999999999 16.139999999999997 50.27999999999999 16.679999999999996 Q 50.69999999999999 16.919999999999995 51.37999999999999 17.079999999999995 z" stroke-linecap="round" />
</g>
		<g transform="matrix(1.16 0 0 1.16 112.94 0)" id="SvgjsG5663"  >
<linearGradient id="SVGID_SvgjsLinearGradient5669_3" gradientUnits="objectBoundingBox" gradientTransform="matrix(1 0 0 1 0 0)"  x1="0" y1="0" x2="1" y2="0">
<stop offset="0%" style="stop-color:rgb(45,56,138);stop-opacity: 1"/>
<stop offset="100%" style="stop-color:rgb(0,174,239);stop-opacity: 1"/>
</linearGradient>
<path style="stroke: none; stroke-width: 1; stroke-dasharray: none; stroke-linecap: butt; stroke-dashoffset: 0; stroke-linejoin: miter; stroke-miterlimit: 4; fill: url(#SVGID_SvgjsLinearGradient5669_3); fill-rule: nonzero; opacity: 1;" vector-effect="non-scaling-stroke"  transform=" translate(-50.04, -51.37)" d="M 50.468 79.688 C 53.776 79.68 55.249 79.331 55.249 79.331 C 55.249 79.331 54.300000000000004 75.602 54.119 73.364 C 53.937999999999995 71.126 53.835 69.96000000000001 54.119 66.899 C 54.389 63.999 54.841 58.733000000000004 56.798 57.473 C 58.514 56.368 64.522 53.846 66.09100000000001 52.852 C 67.66000000000001 51.858 72.73 48.128 73.75500000000001 47.31999999999999 C 74.781 46.51199999999999 80.39500000000001 42.22299999999999 81.96400000000001 40.297 C 83.53300000000002 38.371 84.19600000000001 37.811 85.162 35.946 C 86.128 34.082 86.73100000000001 31.035999999999998 86.73100000000001 29.668 C 86.73100000000001 28.301 86.73100000000001 25.317 86.308 24.261 C 85.88600000000001 23.204 85.765 22.956 84.92 23.08 C 84.075 23.203999999999997 84.316 22.955 83.774 24.073999999999998 C 83.23 25.192999999999998 82.748 26.994999999999997 81.782 27.493 C 80.816 27.99 70.556 29.171 66.75399999999999 30.848999999999997 C 62.95199999999999 32.526999999999994 59.76399999999999 34.11 55.52799999999999 37.18899999999999 C 52.44999999999999 39.425999999999995 50.03699999999999 43.528999999999996 50.03699999999999 43.528999999999996 L 50.00399999999999 43.476 C 50.00399999999999 43.476 47.62199999999999 39.427 44.54499999999999 37.189 C 40.30999999999999 34.11 37.12099999999999 32.527 33.317999999999984 30.849 C 29.515999999999984 29.171 19.255999999999986 27.990000000000002 18.290999999999983 27.493000000000002 C 17.323999999999984 26.995 16.84199999999998 25.193 16.29899999999998 24.074 C 15.755999999999982 22.955000000000002 15.996999999999982 23.204 15.152999999999981 23.080000000000002 C 14.30699999999998 22.955000000000002 14.186999999999982 23.204 13.763999999999982 24.261000000000003 C 13.341999999999981 25.318 13.341999999999981 28.301000000000002 13.341999999999981 29.668000000000003 C 13.341999999999981 31.036 13.94599999999998 34.082 14.90999999999998 35.946000000000005 C 15.87599999999998 37.81100000000001 16.53999999999998 38.370000000000005 18.10899999999998 40.297000000000004 C 19.67799999999998 42.224000000000004 25.29199999999998 46.512 26.31699999999998 47.32000000000001 C 27.34299999999998 48.12800000000001 32.41299999999998 51.858000000000004 33.98199999999998 52.852000000000004 C 35.55099999999997 53.846000000000004 41.55799999999998 56.368 43.27499999999998 57.473000000000006 C 45.23199999999998 58.733000000000004 46.412999999999975 63.998000000000005 46.662999999999975 66.899 C 46.94199999999998 70.151 46.84399999999997 71.126 46.662999999999975 73.364 C 46.48199999999998 75.602 45.726999999999975 79.44 45.726999999999975 79.44 C 45.726999999999975 79.44 47.579 79.691 50.468 79.688 z" stroke-linecap="round" />
</g>
		<g transform="matrix(4.43 0 0 4.43 174.9 0)" id="SvgjsG5664"  >
<path style="stroke: none; stroke-width: 1; stroke-dasharray: none; stroke-linecap: butt; stroke-dashoffset: 0; stroke-linejoin: miter; stroke-miterlimit: 4; fill: rgb(27,19,36); fill-rule: nonzero; opacity: 1;" vector-effect="non-scaling-stroke"  transform=" translate(-4.72, -12.62)" d="M 4.98 11 C 6.840000000000001 11.64 9.02 12.84 8.92 15.54 C 8.84 17.599999999999998 7.88 18.7 7.12 19.24 C 5.18 20.619999999999997 2.3600000000000003 20.099999999999998 0.5200000000000005 19.02 L 1.5000000000000004 15.879999999999999 C 2.8000000000000007 16.439999999999998 5.28 17.52 5.68 15.68 C 6.08 13.92 0.39999999999999947 14.1 0.5599999999999996 9.44 C 0.6999999999999996 5.42 4.8 4.3 8.3 5.84 L 7.260000000000001 8.719999999999999 C 6.340000000000001 8.319999999999999 4.000000000000001 7.8599999999999985 3.8000000000000007 9.499999999999998 C 3.7000000000000006 10.219999999999999 4.32 10.699999999999998 4.98 10.999999999999998 z" stroke-linecap="round" />
</g>
</g>
</g>
</svg>